<mxfile host="app.diagrams.net" modified="2024-03-16T04:19:01.098Z" agent="Mozilla/5.0 (X11; Linux x86_64) AppleWebKit/537.36 (KHTML, like Gecko) Chrome/122.0.0.0 Safari/537.36" version="24.0.7" etag="KkUm_7yL1xGPFsAFqRT8" type="github">
  <diagram name="PÃ¡gina-1" id="gIIraZKns9aaE0krGVCf">
    <mxGraphModel>
      <root>
        <mxCell id="0" />
        <mxCell id="1" parent="0" />
      </root>
    </mxGraphModel>
  </diagram>
</mxfile>
